<?xml version="1.0" encoding="UTF-8" standalone="no"?>
<svg
   xmlns:dc="http://purl.org/dc/elements/1.1/"
   xmlns:cc="http://creativecommons.org/ns#"
   xmlns:rdf="http://www.w3.org/1999/02/22-rdf-syntax-ns#"
   xmlns:svg="http://www.w3.org/2000/svg"
   xmlns="http://www.w3.org/2000/svg"
   xmlns:xlink="http://www.w3.org/1999/xlink"
   width="200"
   height="657"
   id="svg2"
   version="1.1">
  <defs
     id="defs4">
    <linearGradient
       id="linearGradient4424">
      <stop
         style="stop-color:#960000;stop-opacity:1;"
         offset="0"
         id="stop4426" />
      <stop
         id="stop5050"
         offset="0.15000001"
         style="stop-color:#960000;stop-opacity:1;" />
      <stop
         id="stop4432"
         offset="0.60000002"
         style="stop-color:#8e9600;stop-opacity:1;" />
      <stop
         style="stop-color:#005000;stop-opacity:1;"
         offset="1"
         id="stop4428" />
    </linearGradient>
    <linearGradient
       id="linearGradient4424-9">
      <stop
         style="stop-color:#000078;stop-opacity:1;"
         offset="0"
         id="stop4426-7" />
      <stop
         id="stop6777"
         offset="0.05"
         style="stop-color:#000078;stop-opacity:1;" />
      <stop
         id="stop5947"
         offset="0.5"
         style="stop-color:#0081dc;stop-opacity:1;" />
      <stop
         style="stop-color:#000078;stop-opacity:1;"
         offset="0.94919789"
         id="stop6779" />
      <stop
         style="stop-color:#000078;stop-opacity:1;"
         offset="1"
         id="stop4428-1" />
    </linearGradient>
    <linearGradient
       xlink:href="#linearGradient4424"
       id="linearGradient5358"
       gradientUnits="userSpaceOnUse"
       x1="10"
       y1="549.86206"
       x2="116"
       y2="549.86206"
       gradientTransform="translate(49.528295,-453.6)" />
    <linearGradient
       xlink:href="#linearGradient4424"
       id="linearGradient5362"
       gradientUnits="userSpaceOnUse"
       x1="10"
       y1="549.86206"
       x2="116"
       y2="549.86206"
       gradientTransform="translate(970.75471,-453.6)" />
    <linearGradient
       xlink:href="#linearGradient4424"
       id="linearGradient6245"
       gradientUnits="userSpaceOnUse"
       x1="10"
       y1="549.86206"
       x2="116"
       y2="549.86206"
       gradientTransform="translate(39.62263,-453.6)" />
    <linearGradient
       xlink:href="#linearGradient4424"
       id="linearGradient6293"
       gradientUnits="userSpaceOnUse"
       x1="10"
       y1="549.86206"
       x2="116"
       y2="549.86206"
       gradientTransform="translate(257.54716,-453.6)" />
    <pattern
       xlink:href="#Strips1_1"
       id="pattern9313"
       patternTransform="matrix(0.78764254,1.364237,-9.5105956,5.4909445,210,-566.99999)" />
    <pattern
       id="Strips1_1"
       patternTransform="translate(0,0) scale(10,10)"
       height="1"
       width="2"
       patternUnits="userSpaceOnUse">
      <rect
         id="rect8592"
         height="2"
         width="1"
         y="-0.5"
         x="0"
         style="fill:black;stroke:none" />
    </pattern>
    <pattern
       xlink:href="#Strips1_1-0"
       id="pattern9313-0"
       patternTransform="matrix(0.78764254,1.364237,-9.5105956,5.4909445,490.00001,-1147)" />
    <pattern
       id="Strips1_1-0"
       patternTransform="translate(0,0) scale(10,10)"
       height="1"
       width="2"
       patternUnits="userSpaceOnUse">
      <rect
         id="rect8592-6"
         height="2"
         width="1"
         y="-0.5"
         x="0"
         style="fill:black;stroke:none" />
    </pattern>
    <pattern
       xlink:href="#Strips1_1-77-5"
       id="pattern9313-6-5"
       patternTransform="matrix(0.78764254,1.3257476,-9.5105956,5.3360276,276.26955,-611.0257)" />
    <pattern
       id="Strips1_1-77-5"
       patternTransform="translate(0,0) scale(10,10)"
       height="1"
       width="2"
       patternUnits="userSpaceOnUse">
      <rect
         id="rect8592-2-2"
         height="2"
         width="1"
         y="-0.5"
         x="0"
         style="fill:black;stroke:none" />
    </pattern>
    <pattern
       xlink:href="#Strips1_1-77-5-8"
       id="pattern9313-6-5-1"
       patternTransform="matrix(0.78764254,1.3257476,-9.5105956,5.3360276,-157.73042,-611.02571)" />
    <pattern
       id="Strips1_1-77-5-8"
       patternTransform="translate(0,0) scale(10,10)"
       height="1"
       width="2"
       patternUnits="userSpaceOnUse">
      <rect
         id="rect8592-2-2-7"
         height="2"
         width="1"
         y="-0.5"
         x="0"
         style="fill:black;stroke:none" />
    </pattern>
    <pattern
       xlink:href="#Strips1_1-9"
       id="pattern9313-21"
       patternTransform="matrix(0.78764254,1.364237,-9.5105956,5.4909445,1350,-1127)" />
    <pattern
       id="Strips1_1-9"
       patternTransform="translate(0,0) scale(10,10)"
       height="1"
       width="2"
       patternUnits="userSpaceOnUse">
      <rect
         id="rect8592-47"
         height="2"
         width="1"
         y="-0.5"
         x="0"
         style="fill:black;stroke:none" />
    </pattern>
    <pattern
       xlink:href="#Strips1_1-9-9"
       id="pattern9313-21-9"
       patternTransform="matrix(0.78764254,1.364237,-9.5105956,5.4909445,1140,-1127)" />
    <pattern
       id="Strips1_1-9-9"
       patternTransform="translate(0,0) scale(10,10)"
       height="1"
       width="2"
       patternUnits="userSpaceOnUse">
      <rect
         id="rect8592-47-1"
         height="2"
         width="1"
         y="-0.5"
         x="0"
         style="fill:black;stroke:none" />
    </pattern>
    <linearGradient
       xlink:href="#linearGradient4424"
       id="linearGradient12204"
       x1="302.5"
       y1="498.36218"
       x2="404.5"
       y2="498.36218"
       gradientUnits="userSpaceOnUse" />
    <linearGradient
       xlink:href="#linearGradient4424-9"
       id="linearGradient12212"
       x1="302.5"
       y1="516.36218"
       x2="404.5"
       y2="516.36218"
       gradientUnits="userSpaceOnUse" />
  </defs>
  <metadata
     id="metadata7">
    <rdf:RDF>
      <cc:Work
         rdf:about="">
        <dc:format>image/svg+xml</dc:format>
        <dc:type
           rdf:resource="http://purl.org/dc/dcmitype/StillImage" />
        <dc:title />
        <dc:creator>
          <cc:Agent>
            <dc:title>Martin Zuther</dc:title>
          </cc:Agent>
        </dc:creator>
      </cc:Work>
    </rdf:RDF>
  </metadata>
  <g
     transform="translate(0,-402.36218)"
     id="layer1"
     style="display:inline">
    <g
       id="export-button-expand-over"
       transform="translate(-550,864.3622)"
       style="display:inline;enable-background:new">
      <path
         id="rect9755"
         style="color:#000000;clip-rule:nonzero;display:inline;overflow:visible;visibility:visible;isolation:auto;mix-blend-mode:normal;color-interpolation:sRGB;color-interpolation-filters:linearRGB;solid-color:#000000;solid-opacity:1;fill:#0071a0;fill-opacity:1;fill-rule:nonzero;stroke:#000000;stroke-width:0.999999;stroke-linecap:round;stroke-linejoin:round;stroke-miterlimit:4;stroke-dasharray:none;stroke-dashoffset:0;stroke-opacity:1;marker:none;color-rendering:auto;image-rendering:auto;shape-rendering:auto;text-rendering:auto;enable-background:accumulate"
         d="m 810.5,-111.5 h 39 c 5.54,0 10,4.237 10,9.5 0,5.263001 -4.46,9.500002 -10,9.500002 h -39 c -5.54,0 -10,-4.237001 -10,-9.500002 0,-5.263 4.46,-9.5 10,-9.5 z" />
      <g
         aria-label="Expand"
         id="text9759"
         style="font-style:normal;font-variant:normal;font-weight:600;font-stretch:normal;font-size:10.6667px;line-height:0%;font-family:sans-serif;-inkscape-font-specification:'Avenir Next LT Pro Semi-Bold';text-align:center;letter-spacing:0px;word-spacing:0px;text-anchor:middle;display:inline;fill:#000000;fill-opacity:1;stroke:none;enable-background:new">
        <path
           d="m 812.0418,-98.261322 h 5.19469 v -1.19467 h -3.85068 v -2.133338 h 3.46667 V -102.72 h -3.46667 v -1.92001 h 3.65867 v -1.17334 h -5.00268 z"
           style="font-style:normal;font-variant:normal;font-weight:600;font-stretch:normal;font-size:10.6667px;line-height:1.25;font-family:'Avenir Next LT Pro';-inkscape-font-specification:'Avenir Next LT Pro Semi-Bold';fill:#000000"
           id="path86927" />
        <path
           d="m 817.70581,-98.261322 h 1.51467 l 1.344,-1.866668 1.33334,1.866668 h 1.55734 l -2.09068,-2.720008 1.83468,-2.40001 h -1.47201 l -1.14133,1.58934 -1.10934,-1.58934 h -1.53601 l 1.84534,2.40001 z"
           style="font-style:normal;font-variant:normal;font-weight:600;font-stretch:normal;font-size:10.6667px;line-height:1.25;font-family:'Avenir Next LT Pro';-inkscape-font-specification:'Avenir Next LT Pro Semi-Bold';fill:#000000"
           id="path86929" />
        <path
           d="m 824.21248,-103.38134 v 7.680026 h 1.28 v -3.242677 h 0.0213 c 0.33067,0.512002 0.98133,0.832003 1.696,0.832003 1.55734,0 2.51734,-1.237337 2.51734,-2.730672 0,-1.51467 -1.024,-2.68801 -2.48534,-2.68801 -0.93867,0 -1.51467,0.45867 -1.77067,0.864 h -0.032 v -0.71467 z m 4.21335,2.53868 c 0,0.8 -0.48,1.664002 -1.47201,1.664002 -0.93867,0 -1.504,-0.842672 -1.504,-1.642672 0,-0.8 0.56533,-1.66401 1.504,-1.66401 0.99201,0 1.47201,0.84267 1.47201,1.64268 z"
           style="font-style:normal;font-variant:normal;font-weight:600;font-stretch:normal;font-size:10.6667px;line-height:1.25;font-family:'Avenir Next LT Pro';-inkscape-font-specification:'Avenir Next LT Pro Semi-Bold';fill:#000000"
           id="path86931" />
        <path
           d="m 834.14317,-98.261322 h 1.19467 V -101.376 c 0,-1.024 -0.448,-2.15467 -2.28267,-2.15467 -0.77867,0 -1.58934,0.27733 -2.16534,0.81067 l 0.66133,0.77867 c 0.33067,-0.33067 0.85334,-0.58667 1.39734,-0.58667 0.64,0 1.17334,0.30933 1.17334,0.93867 v 0.128 c -1.60001,0 -3.52001,0.21333 -3.52001,1.73867 0,1.19467 1.09867,1.589338 1.92,1.589338 0.72534,0 1.33334,-0.330667 1.58934,-0.778669 h 0.032 z m -0.0213,-2.154678 c 0,0.810674 -0.46934,1.312009 -1.344,1.312009 -0.43734,0 -0.89601,-0.149334 -0.89601,-0.640002 0,-0.757337 1.14134,-0.853337 1.95201,-0.853337 h 0.288 z"
           style="font-style:normal;font-variant:normal;font-weight:600;font-stretch:normal;font-size:10.6667px;line-height:1.25;font-family:'Avenir Next LT Pro';-inkscape-font-specification:'Avenir Next LT Pro Semi-Bold';fill:#000000"
           id="path86933" />
        <path
           d="m 836.83117,-98.261322 h 1.28001 v -2.816008 c 0,-0.68267 0.384,-1.38667 1.19467,-1.38667 0.82133,0 0.96,0.75733 0.96,1.36534 v 2.837338 h 1.28 v -3.200008 c 0,-1.04534 -0.55466,-2.06934 -1.888,-2.06934 -0.75734,0 -1.36534,0.45867 -1.58934,0.97067 h -0.0213 v -0.82134 h -1.21601 z"
           style="font-style:normal;font-variant:normal;font-weight:600;font-stretch:normal;font-size:10.6667px;line-height:1.25;font-family:'Avenir Next LT Pro';-inkscape-font-specification:'Avenir Next LT Pro Semi-Bold';fill:#000000"
           id="path86935" />
        <path
           d="m 848.24453,-106.32535 h -1.28 v 3.59468 h -0.032 c -0.26667,-0.33067 -0.77867,-0.8 -1.71734,-0.8 -1.46134,0 -2.48534,1.17334 -2.48534,2.68801 0,1.493335 0.96,2.730672 2.51734,2.730672 0.71467,0 1.408,-0.330668 1.76,-0.917336 h 0.0213 v 0.768002 h 1.216 z m -4.21335,5.48269 c 0,-0.80001 0.48001,-1.64268 1.47201,-1.64268 0.93867,0 1.504,0.86401 1.504,1.66401 0,0.8 -0.56533,1.642672 -1.504,1.642672 -0.992,0 -1.47201,-0.864002 -1.47201,-1.664002 z"
           style="font-style:normal;font-variant:normal;font-weight:600;font-stretch:normal;font-size:10.6667px;line-height:1.25;font-family:'Avenir Next LT Pro';-inkscape-font-specification:'Avenir Next LT Pro Semi-Bold';fill:#000000"
           id="path86937" />
      </g>
    </g>
  </g>
</svg>
