<?xml version="1.0" encoding="UTF-8" standalone="no"?>
<svg
   xmlns:dc="http://purl.org/dc/elements/1.1/"
   xmlns:cc="http://creativecommons.org/ns#"
   xmlns:rdf="http://www.w3.org/1999/02/22-rdf-syntax-ns#"
   xmlns:svg="http://www.w3.org/2000/svg"
   xmlns="http://www.w3.org/2000/svg"
   xmlns:xlink="http://www.w3.org/1999/xlink"
   width="200"
   height="657"
   id="svg2"
   version="1.1">
  <defs
     id="defs4">
    <linearGradient
       id="linearGradient4424">
      <stop
         style="stop-color:#960000;stop-opacity:1;"
         offset="0"
         id="stop4426" />
      <stop
         id="stop5050"
         offset="0.15000001"
         style="stop-color:#960000;stop-opacity:1;" />
      <stop
         id="stop4432"
         offset="0.60000002"
         style="stop-color:#8e9600;stop-opacity:1;" />
      <stop
         style="stop-color:#005000;stop-opacity:1;"
         offset="1"
         id="stop4428" />
    </linearGradient>
    <linearGradient
       id="linearGradient4424-9">
      <stop
         style="stop-color:#000078;stop-opacity:1;"
         offset="0"
         id="stop4426-7" />
      <stop
         id="stop6777"
         offset="0.05"
         style="stop-color:#000078;stop-opacity:1;" />
      <stop
         id="stop5947"
         offset="0.5"
         style="stop-color:#0081dc;stop-opacity:1;" />
      <stop
         style="stop-color:#000078;stop-opacity:1;"
         offset="0.94919789"
         id="stop6779" />
      <stop
         style="stop-color:#000078;stop-opacity:1;"
         offset="1"
         id="stop4428-1" />
    </linearGradient>
    <linearGradient
       xlink:href="#linearGradient4424"
       id="linearGradient5358"
       gradientUnits="userSpaceOnUse"
       x1="10"
       y1="549.86206"
       x2="116"
       y2="549.86206"
       gradientTransform="translate(49.528295,-453.6)" />
    <linearGradient
       xlink:href="#linearGradient4424"
       id="linearGradient5362"
       gradientUnits="userSpaceOnUse"
       x1="10"
       y1="549.86206"
       x2="116"
       y2="549.86206"
       gradientTransform="translate(970.75471,-453.6)" />
    <linearGradient
       xlink:href="#linearGradient4424"
       id="linearGradient6245"
       gradientUnits="userSpaceOnUse"
       x1="10"
       y1="549.86206"
       x2="116"
       y2="549.86206"
       gradientTransform="translate(39.62263,-453.6)" />
    <linearGradient
       xlink:href="#linearGradient4424"
       id="linearGradient6293"
       gradientUnits="userSpaceOnUse"
       x1="10"
       y1="549.86206"
       x2="116"
       y2="549.86206"
       gradientTransform="translate(257.54716,-453.6)" />
    <pattern
       xlink:href="#Strips1_1"
       id="pattern9313"
       patternTransform="matrix(0.78764254,1.364237,-9.5105956,5.4909445,210,-566.99999)" />
    <pattern
       id="Strips1_1"
       patternTransform="translate(0,0) scale(10,10)"
       height="1"
       width="2"
       patternUnits="userSpaceOnUse">
      <rect
         id="rect8592"
         height="2"
         width="1"
         y="-0.5"
         x="0"
         style="fill:black;stroke:none" />
    </pattern>
    <pattern
       xlink:href="#Strips1_1-0"
       id="pattern9313-0"
       patternTransform="matrix(0.78764254,1.364237,-9.5105956,5.4909445,490.00001,-1147)" />
    <pattern
       id="Strips1_1-0"
       patternTransform="translate(0,0) scale(10,10)"
       height="1"
       width="2"
       patternUnits="userSpaceOnUse">
      <rect
         id="rect8592-6"
         height="2"
         width="1"
         y="-0.5"
         x="0"
         style="fill:black;stroke:none" />
    </pattern>
    <pattern
       xlink:href="#Strips1_1-77-5"
       id="pattern9313-6-5"
       patternTransform="matrix(0.78764254,1.3257476,-9.5105956,5.3360276,276.26955,-611.0257)" />
    <pattern
       id="Strips1_1-77-5"
       patternTransform="translate(0,0) scale(10,10)"
       height="1"
       width="2"
       patternUnits="userSpaceOnUse">
      <rect
         id="rect8592-2-2"
         height="2"
         width="1"
         y="-0.5"
         x="0"
         style="fill:black;stroke:none" />
    </pattern>
    <pattern
       xlink:href="#Strips1_1-77-5-8"
       id="pattern9313-6-5-1"
       patternTransform="matrix(0.78764254,1.3257476,-9.5105956,5.3360276,-157.73042,-611.02571)" />
    <pattern
       id="Strips1_1-77-5-8"
       patternTransform="translate(0,0) scale(10,10)"
       height="1"
       width="2"
       patternUnits="userSpaceOnUse">
      <rect
         id="rect8592-2-2-7"
         height="2"
         width="1"
         y="-0.5"
         x="0"
         style="fill:black;stroke:none" />
    </pattern>
    <pattern
       xlink:href="#Strips1_1-9"
       id="pattern9313-21"
       patternTransform="matrix(0.78764254,1.364237,-9.5105956,5.4909445,1350,-1127)" />
    <pattern
       id="Strips1_1-9"
       patternTransform="translate(0,0) scale(10,10)"
       height="1"
       width="2"
       patternUnits="userSpaceOnUse">
      <rect
         id="rect8592-47"
         height="2"
         width="1"
         y="-0.5"
         x="0"
         style="fill:black;stroke:none" />
    </pattern>
    <pattern
       xlink:href="#Strips1_1-9-9"
       id="pattern9313-21-9"
       patternTransform="matrix(0.78764254,1.364237,-9.5105956,5.4909445,1140,-1127)" />
    <pattern
       id="Strips1_1-9-9"
       patternTransform="translate(0,0) scale(10,10)"
       height="1"
       width="2"
       patternUnits="userSpaceOnUse">
      <rect
         id="rect8592-47-1"
         height="2"
         width="1"
         y="-0.5"
         x="0"
         style="fill:black;stroke:none" />
    </pattern>
    <linearGradient
       xlink:href="#linearGradient4424"
       id="linearGradient12204"
       x1="302.5"
       y1="498.36218"
       x2="404.5"
       y2="498.36218"
       gradientUnits="userSpaceOnUse" />
    <linearGradient
       xlink:href="#linearGradient4424-9"
       id="linearGradient12212"
       x1="302.5"
       y1="516.36218"
       x2="404.5"
       y2="516.36218"
       gradientUnits="userSpaceOnUse" />
  </defs>
  <metadata
     id="metadata7">
    <rdf:RDF>
      <cc:Work
         rdf:about="">
        <dc:format>image/svg+xml</dc:format>
        <dc:type
           rdf:resource="http://purl.org/dc/dcmitype/StillImage" />
        <dc:title />
        <dc:creator>
          <cc:Agent>
            <dc:title>Martin Zuther</dc:title>
          </cc:Agent>
        </dc:creator>
      </cc:Work>
    </rdf:RDF>
  </metadata>
  <g
     transform="translate(0,-402.36218)"
     id="layer1"
     style="display:inline">
    <g
       id="export-button-peaks-on"
       transform="translate(-670,744.3622)"
       style="display:inline;enable-background:new">
      <path
         id="rect9819"
         style="color:#000000;clip-rule:nonzero;display:inline;overflow:visible;visibility:visible;isolation:auto;mix-blend-mode:normal;color-interpolation:sRGB;color-interpolation-filters:linearRGB;solid-color:#000000;solid-opacity:1;fill:#00b4ff;fill-opacity:1;fill-rule:nonzero;stroke:#000000;stroke-width:0.999999;stroke-linecap:round;stroke-linejoin:round;stroke-miterlimit:4;stroke-dasharray:none;stroke-dashoffset:0;stroke-opacity:1;marker:none;color-rendering:auto;image-rendering:auto;shape-rendering:auto;text-rendering:auto;enable-background:accumulate"
         d="m 810.5,-111.5 h 39 c 5.54,0 10,4.237 10,9.5 0,5.263001 -4.46,9.500002 -10,9.500002 h -39 c -5.54,0 -10,-4.237001 -10,-9.500002 0,-5.263 4.46,-9.5 10,-9.5 z" />
      <g
         aria-label="Peaks"
         id="text9823"
         style="font-style:normal;font-variant:normal;font-weight:600;font-stretch:normal;font-size:10.6667px;line-height:0%;font-family:sans-serif;-inkscape-font-specification:'Avenir Next LT Pro Semi-Bold';text-align:center;letter-spacing:0px;word-spacing:0px;text-anchor:middle;display:inline;fill:#000000;fill-opacity:1;stroke:none;enable-background:new">
        <path
           d="m 816.85249,-98.261322 h 1.344 v -3.125348 h 1.03467 c 1.60001,0 2.93334,-0.576 2.93334,-2.24 0,-1.57867 -1.12,-2.18668 -2.84801,-2.18668 h -2.464 z m 1.344,-4.256018 v -2.16534 h 0.98134 c 0.832,0 1.632,0.16 1.632,1.05601 0,0.896 -0.8,1.10933 -1.67467,1.10933 z"
           style="font-style:normal;font-variant:normal;font-weight:600;font-stretch:normal;font-size:10.6667px;line-height:1.25;font-family:'Avenir Next LT Pro';-inkscape-font-specification:'Avenir Next LT Pro Semi-Bold';fill:#000000"
           id="path223367" />
        <path
           d="m 823.58315,-101.33333 c 0.0533,-0.71467 0.66134,-1.23734 1.41868,-1.23734 0.832,0 1.20533,0.576 1.20533,1.23734 z m 3.90402,0.576 c 0,-1.84534 -1.04534,-2.77334 -2.47468,-2.77334 -1.54667,0 -2.70934,1.088 -2.70934,2.74134 0,1.664005 1.17334,2.677342 2.75201,2.677342 0.97067,0 1.696,-0.341335 2.19734,-1.024003 l -0.85334,-0.682669 c -0.288,0.405334 -0.71467,0.661335 -1.35467,0.661335 -0.74667,0 -1.408,-0.533335 -1.46134,-1.258675 h 3.89335 c 0.0107,-0.11733 0.0107,-0.224 0.0107,-0.34133 z"
           style="font-style:normal;font-variant:normal;font-weight:600;font-stretch:normal;font-size:10.6667px;line-height:1.25;font-family:'Avenir Next LT Pro';-inkscape-font-specification:'Avenir Next LT Pro Semi-Bold';fill:#000000"
           id="path223369" />
        <path
           d="m 831.83917,-98.261322 h 1.19467 V -101.376 c 0,-1.024 -0.448,-2.15467 -2.28268,-2.15467 -0.77866,0 -1.58933,0.27733 -2.16534,0.81067 l 0.66134,0.77867 c 0.33067,-0.33067 0.85334,-0.58667 1.39734,-0.58667 0.64,0 1.17333,0.30933 1.17333,0.93867 v 0.128 c -1.6,0 -3.52001,0.21333 -3.52001,1.73867 0,1.19467 1.09867,1.589338 1.92001,1.589338 0.72534,0 1.33334,-0.330667 1.58934,-0.778669 h 0.032 z m -0.0213,-2.154678 c 0,0.810674 -0.46933,1.312009 -1.344,1.312009 -0.43733,0 -0.896,-0.149334 -0.896,-0.640002 0,-0.757337 1.14133,-0.853337 1.952,-0.853337 h 0.288 z"
           style="font-style:normal;font-variant:normal;font-weight:600;font-stretch:normal;font-size:10.6667px;line-height:1.25;font-family:'Avenir Next LT Pro';-inkscape-font-specification:'Avenir Next LT Pro Semi-Bold';fill:#000000"
           id="path223371" />
        <path
           d="m 834.5485,-98.261322 h 1.28001 v -2.624008 h 0.032 l 2.02667,2.624008 h 1.69601 l -2.35735,-2.805338 2.21868,-2.31468 h -1.64267 l -1.94134,2.15468 h -0.032 v -5.09869 h -1.28001 z"
           style="font-style:normal;font-variant:normal;font-weight:600;font-stretch:normal;font-size:10.6667px;line-height:1.25;font-family:'Avenir Next LT Pro';-inkscape-font-specification:'Avenir Next LT Pro Semi-Bold';fill:#000000"
           id="path223373" />
        <path
           d="m 843.89252,-102.752 c -0.416,-0.52267 -1.184,-0.77867 -1.92001,-0.77867 -1.01333,0 -2.03734,0.49067 -2.03734,1.632 0,0.96001 0.75734,1.26934 1.51467,1.45067 0.77867,0.18134 1.17334,0.30934 1.17334,0.736007 0,0.458668 -0.448,0.608002 -0.82133,0.608002 -0.55467,0 -1.03467,-0.277335 -1.31201,-0.640002 l -0.84267,0.789335 c 0.49067,0.544002 1.31201,0.84267 2.10134,0.84267 1.12001,0 2.13334,-0.458668 2.13334,-1.706672 0,-1.00267 -0.896,-1.344 -1.65334,-1.52534 -0.71467,-0.17067 -1.10933,-0.27733 -1.10933,-0.672 0,-0.40534 0.416,-0.55467 0.82133,-0.55467 0.46934,0 0.89601,0.256 1.12001,0.55467 z"
           style="font-style:normal;font-variant:normal;font-weight:600;font-stretch:normal;font-size:10.6667px;line-height:1.25;font-family:'Avenir Next LT Pro';-inkscape-font-specification:'Avenir Next LT Pro Semi-Bold';fill:#000000"
           id="path223375" />
      </g>
    </g>
  </g>
</svg>
